<mxfile host="app.diagrams.net" agent="Mozilla/5.0 (Windows NT 10.0; Win64; x64) AppleWebKit/537.36 (KHTML, like Gecko) Chrome/139.0.0.0 Safari/537.36" version="28.2.2">
  <diagram name="Page-1" id="6FhstABMNAnrWNOUFJKH">
    <mxGraphModel dx="918" dy="502" grid="1" gridSize="10" guides="1" tooltips="1" connect="1" arrows="1" fold="1" page="1" pageScale="1" pageWidth="850" pageHeight="1100" math="0" shadow="0">
      <root>
        <mxCell id="0" />
        <mxCell id="1" parent="0" />
        <mxCell id="TUo5h8yYwICe6H0GWY6u-27" value="&lt;font style=&quot;font-size: 14px;&quot;&gt;Pengguna&lt;/font&gt;" style="swimlane;whiteSpace=wrap;html=1;" vertex="1" parent="1">
          <mxGeometry x="40" y="40" width="200" height="760" as="geometry">
            <mxRectangle x="200" y="110" width="140" height="30" as="alternateBounds" />
          </mxGeometry>
        </mxCell>
        <mxCell id="TUo5h8yYwICe6H0GWY6u-37" value="" style="edgeStyle=orthogonalEdgeStyle;rounded=0;orthogonalLoop=1;jettySize=auto;html=1;" edge="1" parent="TUo5h8yYwICe6H0GWY6u-27" source="TUo5h8yYwICe6H0GWY6u-28" target="TUo5h8yYwICe6H0GWY6u-32">
          <mxGeometry relative="1" as="geometry" />
        </mxCell>
        <mxCell id="TUo5h8yYwICe6H0GWY6u-28" value="" style="ellipse;html=1;shape=startState;fillColor=#000000;strokeColor=#000000;" vertex="1" parent="TUo5h8yYwICe6H0GWY6u-27">
          <mxGeometry x="85" y="40" width="30" height="30" as="geometry" />
        </mxCell>
        <mxCell id="TUo5h8yYwICe6H0GWY6u-32" value="&lt;span style=&quot;font-size: 14px;&quot;&gt;Akses Menu Siswa Tes RIASEC&lt;/span&gt;" style="rounded=1;whiteSpace=wrap;html=1;" vertex="1" parent="TUo5h8yYwICe6H0GWY6u-27">
          <mxGeometry x="35" y="100" width="130" height="40" as="geometry" />
        </mxCell>
        <mxCell id="TUo5h8yYwICe6H0GWY6u-43" value="&lt;span style=&quot;font-size: 14px;&quot;&gt;Klik Tomboh Tambah / Hapus Data&lt;/span&gt;" style="rounded=1;whiteSpace=wrap;html=1;" vertex="1" parent="TUo5h8yYwICe6H0GWY6u-27">
          <mxGeometry x="25" y="180" width="150" height="40" as="geometry" />
        </mxCell>
        <mxCell id="TUo5h8yYwICe6H0GWY6u-47" value="&lt;span style=&quot;font-size: 14px;&quot;&gt;Mengisi form tambah siswa tes riasec&lt;/span&gt;" style="rounded=1;whiteSpace=wrap;html=1;" vertex="1" parent="TUo5h8yYwICe6H0GWY6u-27">
          <mxGeometry x="30" y="360" width="150" height="50" as="geometry" />
        </mxCell>
        <mxCell id="TUo5h8yYwICe6H0GWY6u-38" value="&lt;font style=&quot;font-size: 14px;&quot;&gt;Aplikasi&lt;/font&gt;" style="swimlane;whiteSpace=wrap;html=1;" vertex="1" parent="1">
          <mxGeometry x="240" y="40" width="200" height="760" as="geometry">
            <mxRectangle x="200" y="110" width="140" height="30" as="alternateBounds" />
          </mxGeometry>
        </mxCell>
        <mxCell id="TUo5h8yYwICe6H0GWY6u-41" value="&lt;span style=&quot;font-size: 14px;&quot;&gt;Menampilkan Halaman Kelola Tes RIASEC&lt;/span&gt;" style="rounded=1;whiteSpace=wrap;html=1;" vertex="1" parent="TUo5h8yYwICe6H0GWY6u-38">
          <mxGeometry x="20" y="95" width="160" height="50" as="geometry" />
        </mxCell>
        <mxCell id="TUo5h8yYwICe6H0GWY6u-45" value="&lt;span style=&quot;font-size: 14px;&quot;&gt;Menampilkan form siswa tes riasec&lt;/span&gt;" style="rounded=1;whiteSpace=wrap;html=1;" vertex="1" parent="TUo5h8yYwICe6H0GWY6u-38">
          <mxGeometry x="30" y="230" width="140" height="50" as="geometry" />
        </mxCell>
        <mxCell id="TUo5h8yYwICe6H0GWY6u-59" value="" style="edgeStyle=orthogonalEdgeStyle;rounded=0;orthogonalLoop=1;jettySize=auto;html=1;" edge="1" parent="TUo5h8yYwICe6H0GWY6u-38" source="TUo5h8yYwICe6H0GWY6u-49" target="TUo5h8yYwICe6H0GWY6u-58">
          <mxGeometry relative="1" as="geometry" />
        </mxCell>
        <mxCell id="TUo5h8yYwICe6H0GWY6u-49" value="&lt;span style=&quot;font-size: 14px;&quot;&gt;menampilkan informasi berhasil disimpan&lt;/span&gt;" style="rounded=1;whiteSpace=wrap;html=1;" vertex="1" parent="TUo5h8yYwICe6H0GWY6u-38">
          <mxGeometry x="40" y="590" width="120" height="60" as="geometry" />
        </mxCell>
        <mxCell id="TUo5h8yYwICe6H0GWY6u-56" value="" style="edgeStyle=orthogonalEdgeStyle;rounded=0;orthogonalLoop=1;jettySize=auto;html=1;" edge="1" parent="TUo5h8yYwICe6H0GWY6u-38" source="TUo5h8yYwICe6H0GWY6u-50" target="TUo5h8yYwICe6H0GWY6u-49">
          <mxGeometry relative="1" as="geometry" />
        </mxCell>
        <mxCell id="TUo5h8yYwICe6H0GWY6u-57" value="Iya" style="edgeLabel;html=1;align=center;verticalAlign=middle;resizable=0;points=[];" vertex="1" connectable="0" parent="TUo5h8yYwICe6H0GWY6u-56">
          <mxGeometry x="-0.4" y="-3" relative="1" as="geometry">
            <mxPoint x="23" y="-11" as="offset" />
          </mxGeometry>
        </mxCell>
        <mxCell id="TUo5h8yYwICe6H0GWY6u-50" value="Validasi data" style="rhombus;whiteSpace=wrap;html=1;" vertex="1" parent="TUo5h8yYwICe6H0GWY6u-38">
          <mxGeometry x="55" y="430" width="90" height="90" as="geometry" />
        </mxCell>
        <mxCell id="TUo5h8yYwICe6H0GWY6u-55" value="Tidak" style="text;html=1;align=center;verticalAlign=middle;resizable=0;points=[];autosize=1;strokeColor=none;fillColor=none;" vertex="1" parent="TUo5h8yYwICe6H0GWY6u-38">
          <mxGeometry x="5" y="480" width="50" height="30" as="geometry" />
        </mxCell>
        <mxCell id="TUo5h8yYwICe6H0GWY6u-58" value="" style="ellipse;html=1;shape=endState;fillColor=#000000;strokeColor=#ff0000;" vertex="1" parent="TUo5h8yYwICe6H0GWY6u-38">
          <mxGeometry x="85" y="690" width="30" height="30" as="geometry" />
        </mxCell>
        <mxCell id="TUo5h8yYwICe6H0GWY6u-42" value="" style="edgeStyle=orthogonalEdgeStyle;rounded=0;orthogonalLoop=1;jettySize=auto;html=1;" edge="1" parent="1" source="TUo5h8yYwICe6H0GWY6u-32" target="TUo5h8yYwICe6H0GWY6u-41">
          <mxGeometry relative="1" as="geometry" />
        </mxCell>
        <mxCell id="TUo5h8yYwICe6H0GWY6u-44" style="edgeStyle=orthogonalEdgeStyle;rounded=0;orthogonalLoop=1;jettySize=auto;html=1;entryX=1;entryY=0.5;entryDx=0;entryDy=0;" edge="1" parent="1" source="TUo5h8yYwICe6H0GWY6u-41" target="TUo5h8yYwICe6H0GWY6u-43">
          <mxGeometry relative="1" as="geometry">
            <Array as="points">
              <mxPoint x="340" y="240" />
            </Array>
          </mxGeometry>
        </mxCell>
        <mxCell id="TUo5h8yYwICe6H0GWY6u-51" style="edgeStyle=orthogonalEdgeStyle;rounded=0;orthogonalLoop=1;jettySize=auto;html=1;" edge="1" parent="1" source="TUo5h8yYwICe6H0GWY6u-45" target="TUo5h8yYwICe6H0GWY6u-47">
          <mxGeometry relative="1" as="geometry">
            <Array as="points">
              <mxPoint x="350" y="360" />
              <mxPoint x="140" y="360" />
            </Array>
          </mxGeometry>
        </mxCell>
        <mxCell id="TUo5h8yYwICe6H0GWY6u-52" value="" style="edgeStyle=orthogonalEdgeStyle;rounded=0;orthogonalLoop=1;jettySize=auto;html=1;" edge="1" parent="1" source="TUo5h8yYwICe6H0GWY6u-47" target="TUo5h8yYwICe6H0GWY6u-50">
          <mxGeometry relative="1" as="geometry">
            <Array as="points">
              <mxPoint x="340" y="430" />
            </Array>
          </mxGeometry>
        </mxCell>
        <mxCell id="TUo5h8yYwICe6H0GWY6u-54" style="edgeStyle=orthogonalEdgeStyle;rounded=0;orthogonalLoop=1;jettySize=auto;html=1;entryX=0.5;entryY=1;entryDx=0;entryDy=0;" edge="1" parent="1" source="TUo5h8yYwICe6H0GWY6u-50" target="TUo5h8yYwICe6H0GWY6u-47">
          <mxGeometry relative="1" as="geometry" />
        </mxCell>
        <mxCell id="TUo5h8yYwICe6H0GWY6u-61" style="edgeStyle=orthogonalEdgeStyle;rounded=0;orthogonalLoop=1;jettySize=auto;html=1;entryX=0;entryY=0.5;entryDx=0;entryDy=0;" edge="1" parent="1" source="TUo5h8yYwICe6H0GWY6u-43" target="TUo5h8yYwICe6H0GWY6u-45">
          <mxGeometry relative="1" as="geometry">
            <Array as="points">
              <mxPoint x="140" y="295" />
            </Array>
          </mxGeometry>
        </mxCell>
      </root>
    </mxGraphModel>
  </diagram>
</mxfile>
